<svg height='100px' width='100px'  fill="#000000" xmlns="http://www.w3.org/2000/svg" xmlns:xlink="http://www.w3.org/1999/xlink" version="1.1" x="0px" y="0px" viewBox="0 0 128 128" style="enable-background:new 0 0 128 128;" xml:space="preserve"><g><path d="M27.4800415,62.3591309L17.637085,60.59375c-1.6307983-0.2924805-3.1900024,0.7924805-3.4824829,2.4232788   c-0.2924805,1.6308594,0.7924805,3.1900024,2.4232788,3.4825439l9.8429565,1.7653198   c1.6308594,0.2924805,3.1900024-0.7924194,3.4824829-2.4232788S29.1109009,62.6516113,27.4800415,62.3591309z"></path><path d="M31.6791992,41.6102295l-8.0475464-5.9360962c-1.333374-0.9835205-3.2115479-0.6998901-4.1950684,0.6334839   c-0.9835205,1.333313-0.6999512,3.2115479,0.6334229,4.1950684l8.0475464,5.9360352   c1.333374,0.9835205,3.2116089,0.6999512,4.1951294-0.6334229S33.0125732,42.593689,31.6791992,41.6102295z"></path><path d="M39.1011353,30.0401001c0.7161865,1.4940796,2.5079346,2.1246948,4.0020142,1.4085083   c1.4940796-0.7161255,2.1246948-2.5079346,1.4085083-4.0020142L40.18927,18.4290161   c-0.7161865-1.4940796-2.5079346-2.1246948-4.0020142-1.4085083s-2.1246948,2.5079346-1.4085693,4.0020142L39.1011353,30.0401001z"></path><path d="M114.0776367,62.7941284c-0.2924805-1.6307983-1.8515625-2.7157593-3.4824219-2.4232788l-9.8430176,1.7653809   c-1.6308594,0.2924805-2.7158203,1.8516235-2.4233398,3.4824829c0.2926025,1.6308594,1.8518066,2.7157593,3.4825439,2.4232788   l9.8428955-1.7653809C113.2851562,65.9841309,114.3701172,64.4249878,114.0776367,62.7941284z"></path><path d="M100.9335938,45.7246094l7.6943359-6.3873901c1.2747803-1.0583496,1.4503174-2.949707,0.3920898-4.2244873h-0.0001221   c-1.0582275-1.2748413-2.949585-1.4503784-4.2244873-0.3920898l-7.6942139,6.3874512   c-1.2747803,1.0582886-1.4503174,2.949646-0.3919678,4.2244873   C97.7674561,46.6073608,99.6589355,46.7828979,100.9335938,45.7246094z"></path><path d="M90.8022461,17.0205078c-1.4941406-0.7161865-3.2858887-0.0855713-4.0020752,1.4085083l-4.3223877,9.0175781   c-0.7161865,1.4940796-0.0855713,3.2858887,1.4084473,4.0020142c1.4941406,0.7161865,3.2858887,0.0855713,4.0020752-1.4085083   l4.3223877-9.0175781C92.9268799,19.5284424,92.2962646,17.7366943,90.8022461,17.0205078z"></path><path d="M64.0550537,23.999939l0.0135498-0.0001221c1.6314697-0.0128174,2.9437256-1.3455811,2.9312744-2.9770508   l-0.0772705-10.0908813C66.9101562,9.2999268,65.5769043,7.9871826,63.9449463,8l-0.0135498,0.0001221   c-1.6314697,0.0128174-2.9437256,1.3456421-2.9312744,2.9771118l0.0772705,10.0908203   C61.0898438,22.7000122,62.4230957,24.0127563,64.0550537,23.999939z"></path><path d="M89.9931641,56.0185547c-0.2460938-2.0820312-1.5029297-3.8984375-3.3642578-4.8603516   c-1.4432373-0.744751-3.0828857-0.8986206-4.6379395-0.4455566l2.4533691-4.8015137   c1.6738281-3.2773438,0.3759766-7.3183594-2.8935547-9.0078125c-1.5976562-0.8242188-3.4179688-0.9755859-5.1289062-0.4248047   c-0.5174561,0.1664429-1.0012207,0.3974609-1.4533691,0.6740723c-0.0427246-0.4937744-0.1345215-0.9863281-0.2888184-1.4699707   c-0.5439453-1.7060547-1.7207031-3.0986328-3.3115234-3.9199219s-3.4072266-0.9746094-5.1132812-0.4306641   c-0.6379395,0.2033691-1.2316895,0.4953003-1.7685547,0.8640137c-0.2290039-2.1703491-1.5063477-4.1893311-3.5859375-5.2634277   c-3.2841797-1.6933594-7.3369141-0.4042969-9.0341797,2.8798828l-6.1309814,11.8708496   c-2.5136719,1.125061-4.5643921,3.1748657-5.6639404,5.8371582l-4.5224609,10.9492188   c-1.4755859,3.5703125-0.9511719,7.7089844,1.3671875,10.7998047l12.8730469,17.1640625   c0.1289062,0.171875,0.2001953,0.3837891,0.2001953,0.5986328V109.1875c0,2.1357422,1.3486328,4.0332031,3.3554688,4.7226562   c2.6572266,0.9140625,6.9453125,2,12.3232422,2c3.8261719,0,8.2050781-0.5498047,12.9375-2.1025391   c2.0253906-0.6650391,3.3867188-2.5673828,3.3867188-4.734375V91.1679688c0-0.8447266,0.359375-1.6542969,0.9863281-2.2216797   C85.2900391,86.8515625,89.2753906,82.2236328,90,74.6601562V56.9345703   C90,56.7861328,90.0144043,56.1988525,89.9931641,56.0185547z M79.9326172,54.7822266   c0.5234375-1.0185547,1.4140625-1.7724609,2.5058594-2.1220703c1.0917969-0.3466797,2.2548828-0.2519531,3.2724609,0.2753906   c1.2695312,0.6552734,2.1279297,1.8955078,2.2958984,3.3173828C88.0185547,56.3505249,88,56.7861938,88,56.9345703   l0.0002441,1.180542l0.0046387,16.4493408c-0.6552734,6.796875-4.2724609,10.9990234-6.3691406,12.8994141   c-0.0925293,0.0838013-0.1616211,0.1864014-0.2470703,0.2763062c-0.8605957,0.9053955-1.3673096,2.0931396-1.3879395,3.3471069   c-0.0004883,0.0272827-0.0085449,0.0533447-0.0085449,0.0806885v17.9052734c0,1.3007812-0.8076172,2.4394531-2.0097656,2.8339844   c-10.8291016,3.5527344-19.6767578,1.59375-23.9873047,0.1123047c-1.2001953-0.4130859-2.0058594-1.5507812-2.0058594-2.8320312   V87.0322266c0-0.6445312-0.2138672-1.2841797-0.6005859-1.7988281L38.515625,68.0703125   c-1.8964844-2.5292969-2.3251953-5.9160156-1.1191406-8.8369141l4.5224609-10.9492188   c0.5270386-1.2756348,1.3213501-2.3795166,2.3012085-3.2614136c0.8537598-0.7683716,1.8571167-1.3485107,2.9417725-1.7424927   c0.9690552-0.3519287,2.0003052-0.5605469,3.0744019-0.5605469h2.7548828   c1.5683594-0.0003052,3.3052979-0.0006714,5.0500488-0.0010986c0.0408936,0,0.0817871-0.000061,0.1225586-0.000061   c0.7133789-0.0001831,1.425293-0.0003662,2.1291504-0.0005493c0.0407715,0,0.0819092-0.000061,0.1226807-0.000061   c0.6055908-0.0001831,1.2003174-0.0003662,1.7828369-0.0005493l-0.6730957,1.2913818   c-0.2724609,0.5214844-0.2529297,1.1337891,0.0527344,1.6367188c0.3046875,0.5029297,0.8378906,0.8037109,1.4267578,0.8037109   h6.0195312c0.0142822,0,0.0279541-0.0031738,0.0422363-0.0032959c-0.0722656,0.1625977-0.1494141,0.322998-0.2348633,0.4794312   c-0.0068359,0.0126343-0.0128174,0.0257568-0.0197754,0.0383911c-0.310791,0.5608521-0.7055664,1.0792847-1.1782227,1.5391846   c-1.265625,1.2324219-2.9335938,1.9140625-4.7089844,1.8720703l-4.6279297-0.0410156   c-1.003418,0.0117188-1.9390869,0.5040283-2.501709,1.3301392c-0.0483398,0.071106-0.1120605,0.1278076-0.154541,0.2040405   l-2.7597656,4.9475708l-0.2802734,0.5026245c-0.4567871,0.8192139-0.5078125,1.782959-0.1396484,2.6456909   c0.0008545,0.0021362,0.0009766,0.0045166,0.0019531,0.0066528c0.1696777,0.3953857,0.4226074,0.7339478,0.7268066,1.0142212   c0.2659912,0.2451782,0.5789795,0.4299927,0.921875,0.5644531c0.1131592,0.0443726,0.2207031,0.0995483,0.3405762,0.1303101   c0.0404053,0.0103149,1.3110352,0.3478394,3.0290527,1.0740356c0.298584,0.1262207,0.6120605,0.2662354,0.9335938,0.4162598   c0.2963867,0.1383667,0.5999756,0.2868042,0.9093018,0.4459839c0.972168,0.5002441,1.9893799,1.1047974,2.956665,1.821228   c0.2816162,0.2086182,0.5583496,0.4265747,0.8286133,0.6544189c0.1029053,0.0866699,0.2041016,0.1750488,0.3049316,0.2645264   c0.1789551,0.1591187,0.3540039,0.3226929,0.5251465,0.4908447c0.1850586,0.1818848,0.3642578,0.3694458,0.5380859,0.5620117   c0.4453125,0.492981,0.8527832,1.0192261,1.2025146,1.5840454c0.192749,0.3112793,0.3641357,0.6361084,0.5201416,0.9697876   c0.1428223,0.3053589,0.2745361,0.6170044,0.3823242,0.9414673c0.3144531,0.9476929,0.4714355,1.9772949,0.4174805,3.09375   v7.7294922c0,0.5527344,0.4472656,1,1,1s1-0.4472656,1-1l-0.0001221-1.1806641l-0.0008545-6.5   c0.0722656-1.4949951-0.159668-2.8475952-0.5992432-4.0760498c0.1982422-0.1812744,0.3883057-0.3745728,0.5484619-0.600708   l0.409668-0.5776367c0.4412842-0.0496216,0.8812256-0.1273193,1.3139648-0.2661133   c0.427002-0.1372681,0.8339844-0.3141479,1.2174072-0.5270386c0.0528564,0.8146973,0.2628174,1.6096802,0.616333,2.3421631   l-0.4128418,1.1604614c-0.5330811,1.4918823-0.074707,3.1222534,1.0510254,4.1525269   c0.2456055,0.2247925,0.5119629,0.4308472,0.8190918,0.5896606c0.5605469,0.2890625,1.1660156,0.4277344,1.765625,0.4277344   c1.2246094,0,2.4257812-0.578125,3.1708984-1.6289062l0.9967041-1.4057007   c0.0606689-0.0175171,0.1226807-0.0241699,0.1829834-0.0435181c1.6035156-0.5136719,2.9091797-1.6230469,3.6767578-3.1210938   l2.2402344-4.3720703c0.2519531-0.4912109,0.0576172-1.09375-0.4335938-1.3457031   c-0.4921875-0.2519531-1.0947266-0.0576172-1.3457031,0.4335938l-2.2402344,4.3720703   c-0.2299805,0.4494019-0.5415039,0.8362427-0.8994141,1.1708984c-0.0131836-0.1436157-0.0222168-0.2875977-0.0566406-0.4296875   c-0.2021484-0.828125-0.7519531-1.5273438-1.5097656-1.9189453l-0.1442871-0.074585l-2.1896973-1.1314697   c-0.7568359-0.3896484-1.6425781-0.4345703-2.4306641-0.1230469c-0.3220215,0.1269531-0.6051025,0.3196411-0.8590088,0.5439453   c-0.0003662-0.6607666,0.1331787-1.3295288,0.4556885-1.9560547l0.0720215-0.1400146   c0.0593262-0.1025391,0.1226807-0.2019653,0.177002-0.3082275l2.4703369-4.8347168L79.9326172,54.7822266z M64.4667969,42.6923828   h5.8754883h0.6757812H71.03125h0.4134521h0.1343994c-0.0234375,0.0612183-0.0560303,0.1170044-0.0836182,0.1757812   c-0.1988525,0.4232178-0.4974365,0.7827759-0.8658447,1.0507812c-0.1049805,0.076355-0.215332,0.1444092-0.3300781,0.2053833   c-0.0102539,0.0054932-0.0197754,0.0122681-0.0301514,0.0176392c-0.2103271,0.1083984-0.4354248,0.1859741-0.6690674,0.2372437   c-0.1877441,0.0412598-0.3792725,0.0700073-0.5759277,0.0700073h-5.4726562l0.9024658-1.7327271L64.4667969,42.6923828z    M61.956543,62.7718506c-0.4865723-0.2980957-0.9726562-0.5735474-1.449707-0.8238525l0.2554932-0.3604736   c0.4200439-0.09198,0.8331299-0.2112427,1.2281494-0.3811035C61.9176025,61.7294312,61.9064941,62.2542725,61.956543,62.7718506z    M55.171875,58.3173828c0.072876-0.2062988,0.2230225-0.3580933,0.4050293-0.4689331   c0.0471191-0.0287476,0.0841064-0.0699463,0.1369629-0.0906372c0.2548828-0.1015625,0.5332031-0.0898438,0.7783203,0.0390625   l2.3339844,1.2060547c0.2470703,0.1269531,0.4189453,0.3457031,0.484375,0.6142578   c0.0097656,0.0402832-0.0012207,0.0795288,0.0031738,0.119812c0.0258789,0.229248-0.0144043,0.4570312-0.1506348,0.6497192   l-0.4858398,0.6852417c-1.9963379-0.8703003-3.5379639-1.2810059-3.7270508-1.3297729   c-0.0959473-0.0245361-0.1774902-0.0610352-0.2493896-0.1029663L55.171875,58.3173828z M61.2764893,59.3161011   c-0.010376-0.0570679-0.0087891-0.1148071-0.022583-0.1715698c-0.2021484-0.828125-0.7519531-1.5273438-1.5097656-1.9189453   l-2.3339844-1.2060547c-0.5056152-0.2609863-1.0712891-0.3531494-1.6281738-0.300293l1.6047363-2.8774414   c0.1787109-0.3203125,0.5585938-0.5097656,0.8867188-0.5078125L62.9013672,52.375   c1.201416,0.0200806,2.3781738-0.2191772,3.4665527-0.6791382l-2.8493652,5.5170288   C63.0146484,58.1887817,62.206665,58.8947754,61.2764893,59.3161011z M64.6789551,64.6680908l0.3083496-0.8653564   c0.0917969-0.2597656,0.2851562-0.4589844,0.5419922-0.5595703c0.1132812-0.0449219,0.2304688-0.0673828,0.3466797-0.0673828   c0.1484375,0,0.2949219,0.0351562,0.4316406,0.1064453l2.3339844,1.2050781   c0.2470703,0.1269531,0.4189453,0.3457031,0.484375,0.6152344s0.0126953,0.5419922-0.1474609,0.7685547l-0.6824951,0.9625854   l-0.8304443,1.1711426c-0.4416504-0.7300415-0.9589844-1.4037476-1.5281982-2.0250244   c-0.3537598-0.3861694-0.7259521-0.7527466-1.1134033-1.0986328c-0.0556641-0.0496826-0.1126709-0.097229-0.1689453-0.1461182   L64.6789551,64.6680908z M78.5927734,70.1601562c0.2470703,0.1269531,0.4189453,0.3457031,0.484375,0.6142578   c0.0654297,0.2695312,0.0126953,0.5429688-0.1474609,0.7695312l-0.2188721,0.3087158l-1.4051514,1.9816284l-0.0371094,0.0524292   c-0.5371094,0.7568359-1.5615234,1.0087891-2.3876953,0.5800781c-0.1704102-0.0881348-0.3171387-0.2044678-0.4481201-0.3339233   c-0.4827881-0.4770508-0.680542-1.1899414-0.4813232-1.861084c0.0097656-0.0325317,0.0136719-0.0656738,0.0251465-0.0979614   l0.7299805-2.0519409l0.2299805-0.6463013c0.09375-0.2607422,0.2861328-0.4599609,0.5429688-0.5615234   c0.1132812-0.0439453,0.2314453-0.0664062,0.3476562-0.0664062c0.1474609,0,0.2949219,0.0351562,0.4316406,0.1064453   l1.7810059,0.9202881L78.5927734,70.1601562z M77.0341797,38.3818359c0.4746094-0.1523438,0.9619141-0.2275391,1.4462891-0.2275391   c0.7402344,0,1.4755859,0.1767578,2.1523438,0.5263672c2.2939453,1.1855469,3.2050781,4.0205078,2.0302734,6.3203125   L75.1906738,59.624939l-2.46875,4.7966309c-0.411377,0.7416382-0.9990234,1.3469849-1.7167969,1.7679443   c0.1552734-0.5019531,0.190918-1.0374756,0.064209-1.5596313c-0.2021484-0.8291016-0.7519531-1.5283203-1.5097656-1.9199219   l-2.3339844-1.2050781c-0.7529297-0.3886719-1.640625-0.4345703-2.4306641-0.1220703   c-0.322998,0.1271973-0.6064453,0.3201904-0.8605957,0.5449219c0.0283203-0.6525269,0.1824951-1.3081055,0.498291-1.9257812   l7.4104004-14.5021362c0.7071533-0.5258179,1.2766113-1.2392578,1.6032715-2.0916138   c0.1462402-0.3804932,0.1560059-0.7871704,0.0649414-1.1728516l0.5222168-1.0219116l0.2155762-0.4175415   c0.0070801-0.0136719,0.012085-0.0280151,0.019043-0.041748l0.0170898-0.0334473   C74.8583984,39.5986328,75.8349609,38.7675781,77.0341797,38.3818359z M66.8623047,33.2373047   c1.1992188-0.3818359,2.4726562-0.2744141,3.5878906,0.3027344c1.1171875,0.5761719,1.9423828,1.5527344,2.3242188,2.75   c0.3786621,1.1904297,0.2736816,2.4564819-0.2949219,3.5681763l-0.215332,0.4216309l-0.2412109,0.4669189   c-0.1444092-0.032959-0.2924805-0.0543823-0.4438477-0.0543823h-7.71875c-0.0606689,0-0.1184082,0.0137939-0.1767578,0.0244141   c-0.7145996,0.0003052-1.4643555,0.0006104-2.2348633,0.0008545l2.6635742-5.1571045   C64.6884766,34.4443359,65.6650391,33.6191406,66.8623047,33.2373047z M53.6435547,30.7304688   c1.1894531-2.3037109,4.0332031-3.2109375,6.3388672-2.0205078c2.3046875,1.1894531,3.2109375,4.0332031,2.0205078,6.3378906   l-2.9287109,5.6704712c-2.0859375,0.0005493-4.204834,0.0010376-6.0830078,0.0014038h-2.7548828   c-0.6225586,0-1.2341309,0.0568848-1.8331299,0.1572266L53.6435547,30.7304688z"></path></g></svg>