<svg height='100px' width='100px'  fill="#000000" xmlns="http://www.w3.org/2000/svg" xmlns:xlink="http://www.w3.org/1999/xlink" version="1.1" x="0px" y="0px" viewBox="0 0 128 128" style="enable-background:new 0 0 128 128;" xml:space="preserve"><g><path d="M72.7304688,107.1022949l5.9880371-26C79.1391602,79.2756958,80.7420654,78,82.6164551,78h20.3391113   L83.6203613,61.1149292c-2.9150391-2.5457153-6.6540527-3.9485474-10.5244141-3.9485474h-5.3027344l-4.7315674,8.6746216   c-0.7115479,1.3045044-2.5157471,1.4776001-3.4622803,0.3322144l-7.4437256-9.0068359h-4.8209229   c-5.9154053,0-11.3481445,3.2637329-14.1259766,8.4862671L19.6518555,91.1395874   c-2.144043,4.0307617-1.9243164,8.9088745,0.572998,12.7307129C22.5375977,107.4094238,26.7470703,110,30.7075195,110H49v-0.112915   V97.0117188l-0.6289062-0.1304932l-10.1533203-2.1068115c-0.9492188-0.1972656-1.7480469-0.8447266-2.1376953-1.7324219   s-0.3251953-1.9140625,0.1728516-2.7460938l4.7314453-7.9013672c0.2832031-0.4746094,0.8984375-0.6269531,1.3720703-0.3447266   c0.4736328,0.2841797,0.6279297,0.8984375,0.3447266,1.3720703l-4.7314453,7.9013672   c-0.1689453,0.28125-0.1904297,0.6152344-0.0585938,0.9150391c0.1318359,0.3007812,0.3916016,0.5107422,0.7128906,0.5771484   l11.0187988,2.2869873l0.5603027,0.116333C50.6669922,95.3154297,51,95.7246094,51,96.1982422v0.081543v1.0078125   l4.2205811,0.5275879l1.0262451,0.1282349l1.0632324,0.1329346l0.6000977,0.0750122   c1.6542969,0.2073364,3.15625,0.8654175,4.3898926,1.8400879c0.263916,0.2084961,0.5113525,0.4352417,0.7495117,0.6715088   c0.2407227,0.2388916,0.4658203,0.4922485,0.6779785,0.756897c1.2254639,1.5286865,1.9589844,3.4586792,1.9589844,5.5420532   c0,0.5517578-0.4482422,1-1,1H51v1.0003052v0.9996948V110h22.1905518   C72.6811523,109.1270752,72.4993896,108.1052856,72.7304688,107.1022949z M57.8916016,84.7544556   c0.2550049-1.1008301,0.9976807-1.9749146,1.9711914-2.418335l0.0462646-0.1997681   c0.3742676-1.6161499,1.793457-2.744812,3.4511719-2.7446899c0,0,0,0,0.0001221,0   c0.2689209,0,0.5385742,0.0308838,0.8050537,0.0927124c1.9033203,0.4412842,3.0932617,2.348999,2.6525879,4.2526245   l-0.0467529,0.2017822c0.6733398,0.8228149,0.963623,1.9334106,0.7081299,3.0360718l-2.876709,12.4220581   c-0.2678223-0.2761841-0.5483398-0.5394287-0.8443604-0.786377c-0.2801514-0.2337646-0.5698242-0.4560547-0.873291-0.6613159   l2.645874-11.4255981c0.1794434-0.774292-0.2618408-1.5405273-0.994751-1.7979736l0.333374-1.4398193   c0.1923828-0.8309326-0.3250732-1.6605225-1.1558838-1.8531494l-0.0032959-0.0007935   c-0.1173096-0.0272217-0.2346191-0.0402222-0.3500977-0.0402222c-0.7022705-0.000061-1.3374023,0.4823608-1.5026855,1.1958618   l-0.3334961,1.4406128c-0.0612793-0.0072021-0.1223145-0.0108032-0.1828613-0.0108032   c-0.7016602,0-1.3360596,0.4754639-1.5010986,1.1883545l-2.5144043,10.8572388l-0.998291-0.1248169l-0.9968262-0.1246338   L57.8916016,84.7544556z"></path><path d="M22.9017334,66.5134277c3.9259033-0.480896,6.9682617-3.8203735,6.9682617-7.8762207   c0-1.2478752-0.2885056-2.4280548-0.8017101-3.4785042c-0.2135715-0.437149,0.0510044-0.944767,0.5328712-1.0119553   c3.862093-0.5385094,6.8348789-3.8532143,6.8348789-7.8636055c0-1.1868362-0.2622337-2.3110771-0.730545-3.320755   c-0.3522987-0.7595634,0.1866531-1.6190071,1.0227356-1.5740776c0.1384506,0.0074425,0.2778931,0.0112267,0.4182587,0.0112267   c1.9226074,0,3.6853027-0.6835327,5.0592041-1.8203735c1.3280411,9.2302399,9.635643,16.2053108,19.4146843,15.3497849   c8.4248924-0.7370605,15.3301888-7.4606514,16.2646599-15.8659325C79.0929337,28.1982918,70.620697,19,60,19   c-7.1257324,0-13.2659912,4.1512451-16.1828613,10.1576538c-1.6442566-2.5455875-4.6980286-4.095356-8.0624237-3.5232944   c-3.3942871,0.5771427-6.0757713,3.4187717-6.4902706,6.8367329c-0.1888657,1.5573769,0.0767212,3.0355721,0.6791477,4.3256874   c0.3537445,0.7575493-0.2085934,1.5985641-1.0435295,1.5550003c-0.7881069-0.0411148-1.6082897,0.036274-2.4478226,0.2560501   c-2.9140587,0.7628479-5.2032528,3.1854668-5.7568188,6.1464195c-0.3387012,1.8116646-0.0597477,3.5391006,0.6605434,5.0114136   c0.2130547,0.4354973-0.0534763,0.9409065-0.5336609,1.0077858c-3.8626194,0.5379753-6.8362198,3.8528976-6.8362198,7.8637581   c0,1.6436768,0.4995117,3.1705933,1.3547363,4.4376221c-2.2913818,0.4884644-5.3056641,1.9515991-7.3669434,6.0740356   c-1.0938721,2.3765259-0.2276611,5.9424438,0.5476074,8.2227173c0.4938631,1.4530182,0.2649851,3.0499268-0.5983043,4.3184967   c-0.4429917,0.6509628-0.4639287,1.5399933-0.025538,2.1940613c0.5311871,0.7925262,1.5173616,1.0869598,2.3598042,0.7487946   C13.7203369,83.2429199,23.8144531,78.1607056,22.9017334,66.5134277z M60,53c-3.769165,0-7.2319336-1.3179932-9.9692383-3.5067139   c5.9829102-3.6751099,5.5921631-9.6428223,4.8276367-12.8640747c-0.2619629-1.1037598,0.3763428-2.2153931,1.4682617-2.5228271   c2.708374-0.7623901,4.3671875-2.8592529,5.2878418-4.4917603c2.7287598,2.5836182,7.1135254,4.7306519,14.1538086,4.7789917   C75.9085693,35.2438965,76,36.1105957,76,37C76,45.8224487,68.8223877,53,60,53z"></path><path d="M119.2805176,81.5927734c-0.0037842-0.0181885-0.0025635-0.0378418-0.0068359-0.0559082   c-0.0334473-0.1400146-0.0830078-0.2744751-0.1446533-0.4023438c-0.0018311-0.0036011-0.0023193-0.0076904-0.0040283-0.0112305   C118.8034668,80.467041,118.1306152,80,117.3273926,80h-0.0004883h-12.0811768H82.6164551h-0.0028076   c-0.9343262,0-1.7441406,0.6469116-1.9505615,1.5581055l-0.1674805,0.739624l-5.8161621,25.253418   C74.3907471,108.8041382,75.3425293,110,76.628418,110h0.0953369h1.9229736h32.6920166H111.4375   c0.9343262,0,1.7441406-0.6469116,1.9505615-1.5581055l5.8898926-26c0.029541-0.1303711,0.0380859-0.2590942,0.0418701-0.3868408   c0.0007324-0.0238647,0.0078125-0.0485229,0.0078125-0.0722046   C119.3266602,81.8494873,119.3071289,81.7198486,119.2805176,81.5927734z M78.6467285,99.5115967l1.7839355-7.8753052   L82.6136475,82h24.9222412h9.7915039L111.4375,108H78.6467285h-1.9229736L78.6467285,99.5115967z"></path><path d="M97,99c2.7614746,0,5-2.2385864,5-5s-2.2385254-5-5-5s-5,2.2385864-5,5S94.2385254,99,97,99z M97,91   c1.6541748,0,3,1.3457642,3,3s-1.3458252,3-3,3s-3-1.3457642-3-3S95.3458252,91,97,91z"></path></g></svg>