<svg height='100px' width='100px'  fill="#000000" xmlns="http://www.w3.org/2000/svg" xmlns:xlink="http://www.w3.org/1999/xlink" version="1.1" x="0px" y="0px" viewBox="0 0 128 128" style="enable-background:new 0 0 128 128;" xml:space="preserve"><g><path d="M46,33c5.5228271,0,10-4.4771729,10-10c0-2.7642822-1.1218262-5.2663574-2.9348145-7.076416   C54.2346191,15.0083618,55,13.6000977,55,12c0-2.7614136-2.2385254-5-5-5c-2.7614136,0-5,2.2385864-5,5   c0,0.3588257,0.0412598,0.7073975,0.1130981,1.0447998C40.0064697,13.4943848,36,17.7766113,36,23   C36,28.5228271,40.4771729,33,46,33z M45.4128418,17.5233765c0.9373169,2.4180298,3.2076416,5.7064209,8.5562744,6.0856934   C53.6560059,27.7359009,50.2056885,31,46,31c-4.0251465,0-7.3560791-2.9910889-7.9099731-6.8656006   C42.6740723,23.6661987,44.6036987,20.2469482,45.4128418,17.5233765z"></path><path d="M82.5163574,43.9735718c-0.9157715,1.258667-1.3760986,2.8691406-1.1356201,4.5928955   c0.3570557,2.5574951,2.3319092,4.6863403,4.8549805,5.2362061c0.4660645,0.1015625,0.9244385,0.1494751,1.3712158,0.1494751   c0.3186035,0,0.6312256-0.024353,0.9366455-0.0709229c0.0955811-0.0145874,0.1911621-0.0216675,0.2862549-0.0216675   c0.7811279,0,1.5203857,0.4788208,1.8150635,1.2164307c0.9263916,2.3185425,3.192749,3.956665,5.842041,3.956665   s4.9156494-1.6381226,5.842041-3.956665c0.2947998-0.7377319,1.0344238-1.2163086,1.8155518-1.2163086   c0.0950928,0,0.1907959,0.0070801,0.286377,0.0216675c0.3051758,0.0465088,0.6175537,0.0708008,0.9359131,0.0708008   c0.4458008,0,0.9030762-0.0476685,1.3681641-0.1487427c2.5231934-0.5482788,4.4991455-2.6758423,4.857666-5.2329712   c0.2418213-1.7252808-0.2186279-3.3373413-1.1352539-4.5970459c-0.5405273-0.7428589-0.5404053-1.7167969,0.0001221-2.4596558   c0.9139404-1.2561646,1.3743896-2.8626709,1.137085-4.5825195c-0.3562012-2.5810547-2.3625488-4.7251587-4.9128418-5.2584229   c-0.4466553-0.0934448-0.8862305-0.1375732-1.3149414-0.1375732c-0.366333,0-0.7247314,0.0322266-1.0732422,0.0934448   c-0.1292725,0.0227051-0.2580566,0.0338135-0.3851318,0.0338135c-0.7700195,0-1.4766846-0.4081421-1.8452148-1.1132812   c-1.0496826-2.0089722-3.1525879-3.3803711-5.5762939-3.3803711c-2.4238281,0-4.5264893,1.3713379-5.5762939,3.3803711   c-0.3684082,0.7050781-1.0750732,1.1132812-1.8452148,1.1132812c-0.1270752,0-0.2558594-0.0111084-0.3851318-0.0338135   c-0.3483887-0.0612183-0.7069092-0.0934448-1.0732422-0.0934448c-0.4285889,0-0.8679199,0.0441284-1.3146973,0.1375122   c-2.550293,0.5332031-4.5566406,2.6771851-4.9129639,5.2581787c-0.2374268,1.7199707,0.2230225,3.3265991,1.1369629,4.5828247   C83.0570068,42.2567139,83.0570068,43.2305908,82.5163574,43.9735718z M84.133667,40.3370972   c-0.6534424-0.8980713-0.9279785-2.0106201-0.7730713-3.1326904c0.2407227-1.7433472,1.614624-3.2130737,3.3410645-3.5740356   c0.302124-0.0631714,0.6066895-0.0951538,0.9053955-0.0951538c0.2435303,0,0.4881592,0.0213013,0.7270508,0.0632324   c0.2416992,0.0424805,0.487793,0.0640259,0.7313232,0.0640259c1.5267334,0,2.9129639-0.8380127,3.6177979-2.1870117   c0.7434082-1.4227905,2.2009277-2.3066406,3.8037109-2.3066406s3.0603027,0.8838501,3.803833,2.3067627   c0.7049561,1.348938,2.0911865,2.1868896,3.6176758,2.1868896c0.2435303,0,0.489502-0.0215454,0.7312012-0.0639648   c0.2390137-0.0419922,0.4836426-0.0632935,0.7271729-0.0632935c0.2988281,0,0.6033936,0.0320435,0.9056396,0.0952148   c1.7264404,0.3610229,3.1003418,1.8308105,3.3409424,3.5741577c0.1547852,1.1220093-0.119751,2.2344971-0.7730713,3.1324463   c-1.0473633,1.4394531-1.0474854,3.3736572-0.0001221,4.8131104c0.6555176,0.9008179,0.9295654,2.0169067,0.7718506,3.1425781   c-0.2416992,1.723999-1.5994873,3.1864014-3.3018799,3.5563354c-0.3146973,0.0683594-0.6320801,0.1030884-0.9433594,0.1030884   c-0.2121582,0-0.4257812-0.0161743-0.6346436-0.0479736c-0.1936035-0.02948-0.3913574-0.0444946-0.5876465-0.0444946   c-1.6054688,0-3.0814209,0.9943237-3.6728516,2.4742432c-0.6550293,1.6394043-2.2191162,2.6987305-3.9847412,2.6987305   s-3.3297119-1.0593262-3.9848633-2.6987305c-0.5913086-1.4799805-2.0670166-2.4743652-3.6722412-2.4743652   c-0.1962891,0-0.394043,0.0150146-0.5877686,0.0445557c-0.2091064,0.0318604-0.4227295,0.0480347-0.6351318,0.0480347   c-0.3118896,0-0.6300049-0.0348511-0.9453125-0.1035767c-1.7022705-0.3710327-3.0593262-1.8343506-3.3000488-3.5584717   c-0.1569824-1.1248169,0.1171875-2.2399292,0.7719727-3.1397705C85.1810303,43.7108154,85.1810303,41.7764893,84.133667,40.3370972   z"></path><circle cx="77.3273926" cy="29.7619629" r="2"></circle><circle cx="69.6690674" cy="25.6676636" r="2"></circle><circle cx="61.4343262" cy="22.5756226" r="2"></circle><path d="M57.7205811,64.3137817c-0.0050049-0.0150146-0.0090332-0.0280762-0.0140381-0.0430298   c-0.1652832,0.0093994-0.3288574,0.0251465-0.496582,0.0251465H40.3535156c-2.390625,0-4.3359375-1.9453125-4.3359375-4.3359375   c0-0.0294189,0.0077515-0.0570068,0.0083618-0.0863037c-0.9699707-0.2148438-1.8947144-0.5688477-2.7491455-1.0458984   c-0.0819092,1.8388062-0.2876587,3.8554688-0.6690674,5.4860229c-1.9628906,8.3909912-1.6477661,11.5142212-1.8618164,17.6791382   c-0.3947144,11.3682861,0.1290894,27.7478638,0.4060669,35.0183105c0.0792847,2.079895,1.7886963,3.7185669,3.8700562,3.7185669   c1.9200439,0,3.550293-1.4067383,3.8313599-3.3060913l5.2992554-35.8092041   c0.1130371-0.7637939,0.7686157-1.3295288,1.5407104-1.3295288c0.7676392,0,1.4207764,0.5593262,1.5389404,1.3178101   l5.5845947,35.8500977c0.2937012,1.8861084,1.9179688,3.2769165,3.8269043,3.2769165h0.0246582   c2.151123,0,3.8901367-1.7529907,3.8729248-3.9040527l-0.258667-32.2890015   C60.2827148,84.5367432,60.0834961,71.4595337,57.7205811,64.3137817z"></path><path d="M60.4624023,42.1495361l-0.0180664,0.0487061c-0.0227051-0.1300659-0.0471191-0.2592773-0.0761719-0.387085   l-0.2089844-0.7506104c-1.0581055-3.1791992-4.0517578-5.4743652-7.5865479-5.4743652h-3.5653076   c0.7814941,1.0690308,1.1033936,2.4036255,0.8745117,3.7185059l-2.2734375,13.0537109   c-0.1707764,0.9815674-0.4967651,1.8994751-0.9378662,2.7424316l8.77771-0.708252   c0.1519775-0.0103149,0.2944336,0.0169067,0.4267578,0.0657959c0.1220703,0.0452271,0.2316895,0.1122437,0.3258057,0.1982422   c0.1798096,0.1641846,0.3031006,0.3900146,0.324585,0.6529541c0.0275879,0.3443604-0.1351318,0.6482544-0.3868408,0.8488159   c-0.1501465,0.1196899-0.3243408,0.2115479-0.5301514,0.2283325l-10.4658813,0.8444824   c-1.7156372,1.7905273-4.1226196,2.8869629-6.7626343,2.8869629h-0.1904297c-0.0525513,0-0.104126-0.0056763-0.1565552-0.0065308   c0.079834,1.2163086,1.0844727,2.1842651,2.3206177,2.1842651h16.7329102h0.1235352   c3.7119141,0,6.7314453-3.0195312,6.7314453-6.7314453c0-0.6083984-0.0830078-1.2167969-0.2470703-1.8066406L60.4624023,42.1495361   z"></path><path d="M33.3165283,56.4829102c0.9470215,0.7106934,2.0529785,1.1989746,3.2324829,1.4458618   c0.3496704,0.0731812,0.7058716,0.1156616,1.0675049,0.1417236c0.1915894,0.013855,0.3788452,0.0476685,0.572937,0.0476685   h0.1904297c0.194458,0,0.3865356-0.0108643,0.5775757-0.0256958c0.7918701-0.0614014,1.5491333-0.2507324,2.2549438-0.5441895   c0.6966553-0.2896729,1.3438721-0.6774902,1.914917-1.1582642c0.3843384-0.3234863,0.7306519-0.6904907,1.0424194-1.0874023   c0.7324829-0.9324341,1.2523804-2.0484619,1.4679565-3.2879639l2.2734375-13.0537109   c0.1464844-0.8417969-0.0849609-1.6992188-0.6347656-2.3535156c-0.5336914-0.6351318-1.3098145-1-2.1363525-1.0212402   c-0.0249634-0.0006714-0.048584-0.0080566-0.0736084-0.0080566c-0.03125,0-0.0608521,0.0071411-0.0919189,0.0080566   c-1.4249268,0.0428467-2.6448975,1.0556641-2.9354248,2.454834l-1.7148438,8.953125   c-0.1035156,0.5419922-0.6298828,0.8916016-1.1708984,0.7939453c-0.5419922-0.1044922-0.8974609-0.6279297-0.7939453-1.1708984   l1.7060547-8.90625c0.0039062-0.0195312,0.0078125-0.0400391,0.0117188-0.0595703l0.3959351-2.0651855l0.0015259-0.0080566   h-4.4833984c-0.0537109,0-0.1057129,0.0068359-0.1591187,0.0080566c-0.0217896,0.0004883-0.0431519,0.0026245-0.0648804,0.0032959   c-0.3260498,0.0020752-0.644043,0.0366211-0.9532471,0.0961304c-0.0270386,0.0046387-0.0545654,0.0075073-0.081543,0.0124512   c-3.2320557,0.5940552-5.7108765,3.4223633-5.7412109,6.8185425l-0.0029297,0.3222656   c-0.0253906,2.9550781,0.3769531,5.8925781,1.1962891,8.7304688l0.1953125,0.6738281   C30.8797607,53.9761353,31.9353638,55.4463501,33.3165283,56.4829102z"></path><path d="M96.4813232,48.7211304h-0.0280762c-0.9932861,0-1.7984619,0.8052368-1.7984619,1.7984619   c0,0.9932861,0.8051758,1.7984619,1.7984619,1.7984619h0.0280762c0.9932861,0,1.7984619-0.8051758,1.7984619-1.7984619   C98.2797852,49.5263672,97.4746094,48.7211304,96.4813232,48.7211304z"></path><path d="M91.9614258,39.914917c0.6989746,0,1.2731934-0.5016479,1.4335938-1.1820068   c0.3190918-1.3520508,1.2695312-2.083313,3.0031738-2.083313c1.8815918,0,3.1818848,0.8026733,3.1818848,2.6287842   c0,3.2373047-4.5649414,1.9088745-4.5649414,6.3911743v0.5814819c0,0.7791748,0.6315918,1.4108276,1.4108887,1.4108276   c0.7790527,0,1.4106445-0.6316528,1.4106445-1.4108276v-0.5534058c0-1.8815308,4.6484375-1.3557739,4.6484375-6.3638306   c0-3.5695801-2.8776855-5.4503784-6.1976318-5.4503784c-2.9871826,0-5.1414795,1.5505371-5.7642822,4.295166   C90.3201904,39.072998,91.0441895,39.914917,91.9614258,39.914917z"></path></g></svg>